# Blender 3.3.0 Beta
# www.blender.org
mtllib GrassBlade.mtl
o Grass1
v 0.000001 -0.150720 0.065739
v 0.000001 0.746962 0.057790
v -0.115853 -0.150720 0.000000
v -0.101845 0.746962 0.000000
v 0.115853 -0.150720 -0.000000
v 0.101845 0.746962 -0.000000
v 0.000000 1.807701 0.030043
v -0.052946 1.807701 0.000000
v 0.052946 1.807701 -0.000000
v 0.000000 2.144410 0.000000
vn -0.4935 0.0077 0.8697
vn 0.4935 0.0077 0.8697
vn 0.4920 0.0774 0.8671
vn -0.4934 0.0227 0.8695
vn 0.4934 0.0227 0.8695
vn -0.4920 0.0774 0.8671
vt 0.500001 0.000000
vt 0.500001 0.391125
vt 0.000000 0.000000
vt 0.060452 0.391125
vt 1.000000 0.000000
vt 0.939547 0.391125
vt 0.500001 0.853295
vt 0.271493 0.853295
vt 0.728505 0.853295
vt 0.499999 1.000000
s 0
f 1/1/1 2/2/1 4/4/1 3/3/1
f 5/5/2 6/6/2 2/2/2 1/1/2
f 7/7/3 9/9/3 10/10/3
f 4/4/4 2/2/4 7/7/4 8/8/4
f 2/2/5 6/6/5 9/9/5 7/7/5
f 8/8/6 7/7/6 10/10/6
